<svg width="25" height="33" viewBox="0 0 25 33" fill="none" xmlns="http://www.w3.org/2000/svg">
<path fill-rule="evenodd" clip-rule="evenodd" d="M21.0346 12.7298C21.2574 12.7378 21.4305 12.9318 21.4213 13.1633C21.3575 14.7631 20.4314 18.4478 17.2049 20.5578C17.0156 20.6816 16.7666 20.6233 16.6488 20.4276C16.5309 20.2319 16.5889 19.9728 16.7782 19.849C19.7043 17.9354 20.5576 14.5613 20.6145 13.1345C20.6237 12.9031 20.8118 12.7219 21.0346 12.7298Z" fill="url(#paint0_linear_7_2)"/>
<path fill-rule="evenodd" clip-rule="evenodd" d="M17.9927 12.5574C18.2157 12.5537 18.3981 12.7384 18.4001 12.97C18.4046 13.499 18.2893 14.3253 17.9345 15.1427C17.5774 15.965 16.9663 16.8029 15.9672 17.2977C15.7653 17.3977 15.5248 17.3093 15.43 17.1004C15.3351 16.8914 15.4219 16.641 15.6238 16.541C16.4049 16.1542 16.8982 15.4943 17.1985 14.8024C17.501 14.1056 17.596 13.4014 17.5924 12.9835C17.5904 12.7519 17.7696 12.5611 17.9927 12.5574Z" fill="url(#paint1_linear_7_2)"/>
<path fill-rule="evenodd" clip-rule="evenodd" d="M5.68654 21.6948C3.54387 19.9331 2.12012 17.4051 1.69713 14.6114C1.27414 11.8177 1.88276 8.96181 3.40249 6.60922C4.92222 4.25662 7.24229 2.57877 9.9034 1.90781C10.1211 1.85293 10.3406 1.99059 10.3938 2.21527C10.447 2.43995 10.3136 2.66658 10.0959 2.72146C7.63236 3.34261 5.48451 4.89592 4.07759 7.07388C2.67066 9.25184 2.10722 11.8957 2.49881 14.4821C2.8904 17.0684 4.20847 19.4087 6.19209 21.0397C8.17571 22.6707 10.6803 23.4735 13.21 23.2891C15.7397 23.1047 18.1101 21.9466 19.852 20.0441C21.594 18.1415 22.5803 15.6333 22.616 13.0158C22.6516 10.3983 21.7338 7.86238 20.0443 5.91011C18.3549 3.95783 16.0169 2.73149 13.4932 2.47384C13.2702 2.45108 13.1073 2.24604 13.1294 2.01587C13.1514 1.78571 13.3501 1.61758 13.5731 1.64034C16.2991 1.91864 18.8246 3.24332 20.6495 5.35213C22.4744 7.46094 23.4658 10.2002 23.4273 13.0275C23.3888 15.8549 22.3233 18.5643 20.4418 20.6194C18.5602 22.6745 15.9997 23.9254 13.2671 24.1246C10.5346 24.3237 7.82921 23.4566 5.68654 21.6948Z" fill="black"/>
<path fill-rule="evenodd" clip-rule="evenodd" d="M13.4858 1.65537C13.7096 1.64322 13.9005 1.8206 13.9123 2.05157L14.3946 11.511C14.4064 11.742 14.2346 11.9391 14.0108 11.9513C13.787 11.9634 13.5961 11.786 13.5843 11.5551L13.102 2.09559C13.0902 1.86462 13.2621 1.66753 13.4858 1.65537Z" fill="black"/>
<path fill-rule="evenodd" clip-rule="evenodd" d="M7.68715 5.67224C7.54724 5.49795 7.28557 5.47025 7.10269 5.61037C5.32724 6.9706 3.13805 10.0885 4.05223 14.1212C4.10147 14.3384 4.32374 14.4715 4.54867 14.4184C4.7736 14.3653 4.91603 14.1462 4.86678 13.9289C4.03915 10.278 6.0198 7.45931 7.60933 6.2415C7.79221 6.10139 7.82706 5.84652 7.68715 5.67224Z" fill="url(#paint2_linear_7_2)"/>
<path fill-rule="evenodd" clip-rule="evenodd" d="M11.3764 14.9123L14.8747 12.8274L11.3764 10.7426V14.9123ZM16.0918 13.0692C16.2721 12.9618 16.2721 12.6931 16.0918 12.5857L10.9707 9.53367C10.7904 9.42621 10.565 9.56054 10.565 9.77546V15.8794C10.565 16.0943 10.7904 16.2287 10.9707 16.1212L16.0918 13.0692Z" fill="black"/>
<path fill-rule="evenodd" clip-rule="evenodd" d="M9.03925 8.06854C8.90457 7.8837 8.65023 7.84654 8.47115 7.98556C7.43736 8.78808 6.09294 10.4519 6.53481 12.8418C6.57681 13.069 6.78929 13.218 7.00938 13.1747C7.22947 13.1313 7.37384 12.912 7.33184 12.6848C6.97178 10.7374 8.05146 9.35935 8.95885 8.65495C9.13793 8.51594 9.17392 8.25339 9.03925 8.06854Z" fill="url(#paint3_linear_7_2)"/>
<path d="M5.02637 32.0693V28.1861H5.85501L6.49556 30.007C6.58198 30.2484 6.64807 30.5003 6.72941 30.7522H6.74975C6.83617 30.5003 6.90226 30.2484 6.97851 30.007L7.60381 28.1861H8.43754V32.0693H7.75124V30.4478C7.75124 30.0805 7.81224 29.54 7.85291 29.1727H7.82749L7.51739 30.0858L6.93784 31.723H6.50573L5.92618 30.0858L5.62116 29.1727H5.60083C5.6415 29.54 5.69742 30.0805 5.69742 30.4478V32.0693H5.02637Z" fill="black"/>
<path d="M11.3126 32.1428C10.3924 32.1428 9.84847 31.6128 9.84847 30.3271V28.1861H10.5958V30.3954C10.5958 31.1982 10.8703 31.4711 11.3126 31.4711C11.7549 31.4711 12.0446 31.1982 12.0446 30.3954V28.1861H12.7665V30.3271C12.7665 31.6128 12.2327 32.1428 11.3126 32.1428Z" fill="black"/>
<path d="M15.2191 32.1428C14.7108 32.1428 14.2126 31.9434 13.8465 31.5813L14.2786 31.0461C14.543 31.3032 14.9039 31.4711 15.2344 31.4711C15.6258 31.4711 15.8292 31.298 15.8292 31.0303C15.8292 30.7417 15.6004 30.6473 15.2649 30.5003L14.7616 30.2799C14.3854 30.1225 13.999 29.8024 13.999 29.2409C13.999 28.6059 14.543 28.1179 15.3005 28.1179C15.7377 28.1179 16.1749 28.2963 16.4799 28.6164L16.1037 29.1045C15.8597 28.8998 15.6106 28.7844 15.3005 28.7844C14.97 28.7844 14.7616 28.9365 14.7616 29.1884C14.7616 29.4665 15.031 29.5715 15.3513 29.7027L15.8444 29.9126C16.2969 30.1068 16.5968 30.4111 16.5968 30.9674C16.5968 31.6023 16.0834 32.1428 15.2191 32.1428Z" fill="black"/>
<path d="M17.7764 32.0693V28.1861H20.0844V28.8316H18.5287V29.7289H19.8454V30.3849H18.5287V31.4186H20.1403V32.0693H17.7764Z" fill="black"/>
<defs>
<linearGradient id="paint0_linear_7_2" x1="20.2788" y1="14.738" x2="18.702" y2="26.2146" gradientUnits="userSpaceOnUse">
<stop stop-color="#74EBD5"/>
<stop offset="1" stop-color="#ACB6E5" stop-opacity="0"/>
</linearGradient>
<linearGradient id="paint1_linear_7_2" x1="17.6098" y1="13.866" x2="16.7951" y2="20.2535" gradientUnits="userSpaceOnUse">
<stop stop-color="#74EBD5"/>
<stop offset="1" stop-color="#ACB6E5" stop-opacity="0"/>
</linearGradient>
<linearGradient id="paint2_linear_7_2" x1="6.58846" y1="7.62606" x2="-1.24153" y2="17.3565" gradientUnits="userSpaceOnUse">
<stop stop-color="#74EBD5"/>
<stop offset="1" stop-color="#ACB6E5" stop-opacity="0"/>
</linearGradient>
<linearGradient id="paint3_linear_7_2" x1="8.21052" y1="9.23423" x2="3.16344" y2="13.8541" gradientUnits="userSpaceOnUse">
<stop stop-color="#74EBD5"/>
<stop offset="1" stop-color="#ACB6E5" stop-opacity="0"/>
</linearGradient>
</defs>
</svg>
